<svg width="142" height="116" viewBox="0 0 142 116" fill="none" xmlns="http://www.w3.org/2000/svg">
<path d="M108.088 96.6217C108.267 96.6417 108.457 96.6516 108.657 96.6516C109.775 96.6516 110.953 96.452 112.191 96.0527L112.43 99.0176C113.688 97.1009 115.036 96.1326 116.473 96.1126C117.152 96.1126 117.751 96.2224 118.27 96.442C118.809 96.6616 119.228 96.9412 119.528 97.2806C119.827 97.6001 120.067 97.9794 120.247 98.4186C120.446 98.8579 120.576 99.2771 120.636 99.6765C120.716 100.056 120.756 100.445 120.756 100.844V106.984C120.756 107.184 120.995 107.373 121.475 107.553C121.954 107.713 122.373 107.792 122.732 107.792V108.272C120.716 108.192 119.468 108.152 118.989 108.152C117.971 108.152 117.072 108.192 116.293 108.272V107.792C116.693 107.772 117.122 107.683 117.581 107.523C118.04 107.363 118.27 107.194 118.27 107.014C118.29 107.014 118.3 104.987 118.3 100.934C118.3 99.8362 118.1 98.9477 117.701 98.2689C117.322 97.5901 116.743 97.2507 115.964 97.2507C115.325 97.2507 114.636 97.5601 113.898 98.1791C113.159 98.798 112.65 99.5566 112.37 100.455V107.134C112.37 107.453 113.069 107.673 114.467 107.792V108.272C113.648 108.212 112.56 108.182 111.202 108.182C109.905 108.182 108.866 108.212 108.088 108.272V107.792C108.487 107.792 108.896 107.713 109.316 107.553C109.755 107.393 109.974 107.213 109.974 107.014C110.014 105.796 110.034 104.189 110.034 102.192C110.034 100.295 110.014 98.7381 109.974 97.5202C109.595 97.3206 108.966 97.1808 108.088 97.1009L108.088 96.6217ZM105.033 98.149C104.793 98.149 104.514 97.9594 104.194 97.58C103.895 97.2007 103.705 97.011 103.625 97.011C103.126 97.011 102.747 97.1707 102.487 97.4902L102.847 97.7597C103.046 97.9394 103.246 98.2689 103.446 98.7481C103.645 99.2272 103.745 99.7763 103.745 100.395C103.745 101.793 103.226 102.901 102.188 103.719C101.17 104.518 100.101 104.917 98.9834 104.917C98.4443 104.917 97.8952 104.828 97.3362 104.648L96.5276 104.408L96.1982 104.528C95.9985 104.628 95.7988 104.788 95.5992 105.007C95.3995 105.207 95.2897 105.407 95.2698 105.606C95.2897 106.265 95.9386 106.594 97.2164 106.594C98.9734 106.594 100.211 106.664 100.93 106.804C102.188 107.024 103.146 107.383 103.805 107.882C104.464 108.381 104.793 109.23 104.793 110.428C104.793 111.925 104.134 113.103 102.817 113.962C101.519 114.84 99.8918 115.28 97.9352 115.28C96.278 115.28 95.0402 114.97 94.2216 114.351C93.423 113.732 93.0236 112.984 93.0236 112.105C93.0236 111.386 93.3131 110.787 93.8921 110.308C94.4911 109.829 95.3596 109.38 96.4976 108.96C96.4777 108.96 96.4277 108.96 96.3479 108.96C96.268 108.96 96.2181 108.96 96.1982 108.96C95.6192 108.96 95.0701 108.751 94.551 108.332C94.0319 107.912 93.7723 107.323 93.7723 106.565C93.7723 106.165 93.9021 105.786 94.1617 105.427C94.4212 105.047 94.6708 104.788 94.9104 104.648C95.1699 104.488 95.4994 104.308 95.8987 104.109C95.8188 104.049 95.6691 103.899 95.4495 103.66C95.2498 103.4 95.0302 103.14 94.7906 102.881C94.571 102.601 94.3813 102.242 94.2216 101.803C94.0618 101.364 93.982 100.924 93.982 100.485C93.982 99.367 94.4312 98.3687 95.3297 97.4902C96.2281 96.6117 97.3562 96.1725 98.7138 96.1725C99.3727 96.1725 99.9816 96.2424 100.541 96.3821C101.12 96.5219 101.529 96.6616 101.769 96.8014L102.128 97.011C103.046 96.1924 103.845 95.7832 104.524 95.7832C105.462 95.7832 105.931 96.1625 105.931 96.9212C105.931 97.7398 105.632 98.149 105.033 98.149ZM101.529 100.455C101.529 99.2771 101.249 98.3587 100.69 97.6998C100.131 97.021 99.5224 96.6816 98.8636 96.6816C98.2646 96.6816 97.6956 97.041 97.1565 97.7597C96.6174 98.4785 96.3479 99.357 96.3479 100.395C96.3479 101.513 96.5775 102.462 97.0367 103.24C97.5159 104.019 98.1548 104.408 98.9534 104.408C99.6921 104.408 100.301 104.089 100.78 103.45C101.279 102.811 101.529 101.813 101.529 100.455ZM102.817 111.806C102.817 110.668 102.427 109.919 101.649 109.559C100.89 109.2 99.4526 109.02 97.3362 109.02L96.8271 109.26C96.4677 109.4 96.0983 109.709 95.719 110.188C95.3596 110.667 95.1799 111.237 95.1799 111.895C95.1799 112.614 95.4495 113.273 95.9885 113.872C96.5276 114.471 97.3462 114.77 98.4443 114.77C99.8419 114.77 100.92 114.471 101.679 113.872C102.437 113.293 102.817 112.604 102.817 111.806ZM87.5431 89.0748C88.0023 89.0748 88.4216 89.2445 88.8009 89.5839C89.1803 89.9033 89.3699 90.2826 89.3699 90.7219C89.3699 91.261 89.1902 91.7102 88.8309 92.0696C88.4915 92.409 88.0622 92.5787 87.5431 92.5787C87.1637 92.5787 86.7944 92.419 86.435 92.0995C86.0756 91.7801 85.8959 91.3808 85.8959 90.9016C85.8959 90.4024 86.0656 89.9732 86.4051 89.6138C86.7644 89.2544 87.1438 89.0748 87.5431 89.0748ZM88.9207 95.6334C88.8807 99.0875 88.8608 102.931 88.8608 107.163C88.9406 107.563 89.6394 107.773 90.9571 107.792V108.272C90.1386 108.212 89.0504 108.182 87.6928 108.182C86.395 108.182 85.3568 108.212 84.5781 108.272V107.792C85.7761 107.753 86.405 107.543 86.4649 107.163V97.1009C85.846 96.9012 85.217 96.8014 84.5781 96.8014V96.3222C86.375 96.2224 87.8226 95.9928 88.9207 95.6334ZM76.4322 108.661C76.0329 108.661 75.5538 108.561 74.9947 108.361C74.4357 108.162 73.9665 107.972 73.5872 107.792L73.078 107.463L72.9283 108.332H72.3593L72.2993 104.139L72.8085 104.199C72.9083 105.177 73.2677 106.075 73.8866 106.894C74.5055 107.693 75.3541 108.092 76.4322 108.092C78.309 108.092 79.2474 107.333 79.2474 105.816C79.2474 104.718 78.0594 103.739 75.6835 102.881C74.6653 102.522 73.8766 102.092 73.3176 101.593C72.7785 101.094 72.509 100.415 72.509 99.5567C72.509 98.3587 72.9183 97.4204 73.7369 96.7416C74.5554 96.0428 75.6336 95.6934 76.9713 95.6934C77.5503 95.6934 78.0694 95.7932 78.5286 95.9929C79.0078 96.1925 79.3372 96.3822 79.5169 96.5619L79.7864 96.8613L79.8762 95.9629H80.4453L80.3853 99.7364H79.8462C79.8063 99.4569 79.7763 99.2472 79.7564 99.1074C79.7364 98.9477 79.6865 98.6982 79.6067 98.3587C79.5268 97.9994 79.417 97.7199 79.2772 97.5202C79.1375 97.3206 78.9578 97.1109 78.7382 96.8913C78.5186 96.6517 78.2291 96.482 77.8697 96.3822C77.5103 96.2624 77.111 96.2025 76.6717 96.2025C76.0528 96.2025 75.5437 96.4021 75.1444 96.8015C74.765 97.1808 74.5754 97.6699 74.5754 98.2689C74.5754 98.6083 74.6452 98.9178 74.785 99.1973C74.9447 99.4568 75.1544 99.6865 75.4139 99.8862C75.6934 100.066 75.963 100.216 76.2225 100.335C76.4821 100.435 76.8115 100.555 77.2108 100.695C77.6101 100.835 77.9096 100.944 78.1093 101.024C80.3055 102.002 81.4036 103.2 81.4036 104.618C81.4036 106.056 81.0043 107.094 80.2056 107.733C79.407 108.352 78.1493 108.661 76.4322 108.661ZM61.518 101.324L66.9087 101.294C66.9287 100.954 66.9387 100.635 66.9387 100.335C66.9387 99.7164 66.8887 99.2172 66.7889 98.8378C66.6292 98.1989 66.2997 97.6799 65.8006 97.2806C65.3214 96.8613 64.7225 96.6516 64.0037 96.6516C63.265 96.6516 62.686 97.0709 62.2667 97.9095C61.8474 98.748 61.5978 99.8861 61.518 101.324ZM61.488 101.773V102.432C61.488 103.869 61.7476 105.167 62.2667 106.325C62.8057 107.483 63.5744 108.062 64.5727 108.062C65.7307 108.062 66.6491 107.723 67.3279 107.044C68.0068 106.365 68.476 105.656 68.7355 104.917L69.5741 105.516C69.2746 106.275 68.6956 107.014 67.837 107.733C66.9785 108.431 65.8505 108.781 64.4529 108.781C62.7558 108.781 61.3383 108.252 60.2002 107.194C59.0822 106.135 58.5231 104.598 58.5231 102.581C58.5231 101.403 58.7128 100.375 59.0921 99.4968C59.4914 98.5983 60.0106 97.9194 60.6495 97.4602C61.3083 96.9811 61.9672 96.6317 62.626 96.4121C63.2849 96.1924 63.9637 96.0826 64.6625 96.0826C65.7407 96.0826 66.7389 96.3721 67.6574 96.9511C68.5957 97.5301 69.2047 98.4685 69.4842 99.7663C69.5641 100.166 69.604 100.565 69.604 100.964C69.604 101.184 69.594 101.443 69.574 101.743L61.488 101.773ZM55.4984 88.6255C55.3985 91.9997 55.3386 95.903 55.3187 100.335C55.3187 103.37 55.3486 105.686 55.4085 107.283C55.4085 107.423 55.4883 107.543 55.6481 107.643C55.8078 107.723 55.9675 107.782 56.1272 107.822C56.287 107.842 56.4667 107.862 56.6663 107.882C56.8859 107.902 57.0157 107.912 57.0556 107.912V108.272C54.9792 108.352 53.7014 108.451 53.2223 108.571L52.9827 106.385C52.5434 106.944 51.9744 107.433 51.2756 107.852C50.5768 108.252 49.878 108.451 49.1792 108.451C47.6019 108.451 46.3142 107.902 45.3159 106.804C44.3376 105.686 43.8484 104.229 43.8484 102.432C43.8484 100.535 44.4075 98.9777 45.5255 97.7598C46.6436 96.5419 48.0711 95.933 49.8081 95.933C50.3472 95.933 50.8364 96.0328 51.2756 96.2324C51.7148 96.4321 52.0343 96.6417 52.234 96.8613C52.4536 97.081 52.6233 97.2907 52.7431 97.4903L52.9228 97.7898V90.3326C52.8429 89.9333 52.1241 89.7237 50.7665 89.7037L50.7965 89.1946C52.8329 89.1946 54.4002 89.0048 55.4984 88.6255ZM52.7132 104.348L52.9228 101.593L52.7731 98.8978L52.6233 98.5085C52.5035 98.2889 52.3438 98.0293 52.1441 97.7298C51.9445 97.4303 51.635 97.1707 51.2157 96.9511C50.7965 96.7115 50.3373 96.5918 49.8381 96.5918C47.8815 96.5918 46.9032 98.4485 46.9032 102.162C46.9032 105.696 47.9114 107.463 49.928 107.463C50.6467 107.463 51.2856 107.114 51.8447 106.415C52.4237 105.696 52.7132 105.007 52.7132 104.348ZM72.3269 64.1345L83.7471 26.9991H102.115L113.543 64.3878L124.944 26.9991H141.545L122.735 88.671H104.362L92.9109 51.2046L81.3892 88.671H63.2722L51.7333 51.1852L40.2819 88.672C34.2208 108.109 25.3322 118.606 1.74656 114.335L0.124268 99.1758C12.5212 101.323 18.3021 100.418 21.927 88.6705L3.08765 26.9991H19.6869L31.1033 64.3733L42.5175 26.9975C48.574 7.55985 57.4627 -2.93704 81.0483 1.334L82.6706 16.4929C70.2736 14.3453 64.4928 15.2512 60.8811 26.9991L72.3269 64.1345Z" fill="black"/>
</svg>
