<?xml version="1.0" standalone="no"?>
<!DOCTYPE svg PUBLIC "-//W3C//DTD SVG 20010904//EN"
 "http://www.w3.org/TR/2001/REC-SVG-20010904/DTD/svg10.dtd">
<svg version="1.0" xmlns="http://www.w3.org/2000/svg"
 width="840.000000pt" height="840.000000pt" viewBox="0 0 840.000000 840.000000"
 preserveAspectRatio="xMidYMid meet">
<metadata>
Created by potrace 1.14, written by Peter Selinger 2001-2017
</metadata>
<g transform="translate(0.000000,840.000000) scale(0.100000,-0.100000)"
fill="#000000" stroke="none">
<path d="M3607 7684 c-1 -1 -25 -4 -53 -8 -232 -27 -514 -217 -789 -530 -114
-130 -318 -405 -390 -527 -30 -51 -50 -79 -56 -79 -4 0 -12 15 -20 33 -7 17
-20 43 -30 57 -9 14 -18 30 -19 35 -3 18 -72 109 -124 164 -84 89 -217 174
-341 219 -60 21 -79 26 -165 42 -48 9 -242 5 -300 -5 -56 -10 -198 -55 -257
-80 -29 -13 -57 -25 -61 -26 -4 -1 -27 -14 -52 -28 -25 -15 -57 -33 -72 -40
-16 -8 -28 -18 -28 -23 0 -4 -5 -8 -11 -8 -10 0 -148 -94 -199 -137 -65 -52
-140 -133 -161 -173 -20 -38 -24 -59 -23 -130 0 -72 4 -93 27 -137 26 -50 114
-153 131 -153 4 0 20 -8 34 -19 40 -27 125 -52 187 -54 87 -3 210 53 276 125
9 10 19 18 23 18 4 0 30 16 59 36 52 36 64 42 149 74 66 25 169 24 219 -3 103
-55 140 -202 115 -452 -12 -117 -19 -162 -48 -285 -28 -123 -30 -128 -52 -212
-8 -31 -17 -68 -20 -82 -3 -14 -8 -31 -13 -38 -4 -7 -9 -22 -11 -33 -5 -29
-10 -50 -12 -50 -1 0 -3 -7 -5 -15 -5 -24 -76 -273 -82 -290 -3 -8 -7 -21 -9
-28 -4 -23 -105 -335 -145 -452 -22 -63 -42 -122 -44 -130 -4 -17 -118 -342
-134 -382 -6 -16 -8 -28 -6 -28 3 0 -3 -17 -14 -38 -10 -20 -19 -41 -20 -47 0
-5 -17 -57 -37 -115 -40 -116 -38 -109 -69 -197 -13 -35 -21 -63 -18 -63 3 0
1 -6 -4 -12 -8 -11 -45 -108 -48 -128 0 -3 -12 -36 -25 -75 -13 -38 -25 -72
-25 -75 -1 -3 -7 -25 -15 -50 -23 -77 -27 -120 -16 -180 40 -210 310 -327 526
-227 46 21 118 87 144 131 14 24 50 114 81 200 30 86 79 225 109 309 62 174
112 310 128 347 7 14 12 28 14 33 1 4 3 9 4 12 1 3 3 8 4 13 2 10 36 102 51
137 7 17 34 89 60 160 69 192 97 266 114 305 8 19 15 37 15 40 1 6 24 61 53
129 9 18 16 39 17 45 1 6 10 29 20 51 10 22 26 61 36 86 10 26 28 68 40 95 12
27 26 58 31 69 165 385 320 704 520 1070 30 55 59 108 64 117 6 9 25 45 44 80
18 35 40 70 47 79 8 8 14 18 14 21 0 16 219 356 246 383 8 7 14 18 14 23 0 6
3 12 8 14 4 2 26 28 48 58 58 76 170 191 224 227 65 44 118 58 163 44 41 -14
81 -62 92 -110 8 -38 9 -176 2 -188 -3 -5 -8 -29 -12 -53 -3 -25 -8 -53 -11
-62 -3 -9 -7 -25 -9 -36 -2 -11 -24 -93 -50 -183 -26 -90 -48 -168 -49 -174
-1 -5 -7 -26 -13 -45 -7 -19 -28 -89 -48 -155 -59 -192 -151 -481 -232 -730
-25 -77 -46 -144 -48 -150 -1 -5 -5 -17 -8 -25 -4 -8 -27 -75 -51 -148 -24
-74 -47 -136 -50 -140 -3 -3 -6 -11 -6 -18 0 -7 -4 -23 -9 -36 -5 -13 -9 -25
-9 -28 0 -3 -10 -30 -22 -60 -12 -30 -24 -62 -25 -70 -4 -15 -51 -151 -62
-180 -3 -8 -7 -19 -8 -25 -7 -26 -69 -204 -81 -232 -8 -17 -14 -40 -14 -51 0
-12 -4 -23 -9 -27 -5 -3 -13 -20 -17 -38 -3 -17 -11 -43 -17 -57 -12 -29 -15
-39 -19 -60 -2 -8 -6 -19 -10 -25 -7 -11 -67 -206 -67 -218 -1 -4 -8 -21 -16
-37 -9 -17 -13 -30 -10 -30 3 0 1 -9 -5 -21 -6 -11 -13 -28 -15 -37 -3 -17
-32 -115 -42 -142 -4 -8 -7 -20 -9 -27 -1 -7 -12 -45 -25 -85 -13 -40 -24 -78
-25 -85 -1 -7 -11 -43 -23 -80 -11 -37 -25 -88 -32 -113 -7 -25 -14 -49 -15
-55 -2 -5 -5 -19 -8 -30 -3 -11 -10 -38 -16 -60 -6 -22 -13 -50 -16 -63 -2
-12 -17 -75 -33 -140 -16 -64 -32 -130 -35 -147 -8 -37 -14 -68 -21 -97 -7
-29 -62 -332 -69 -378 -29 -189 -28 -452 4 -585 5 -22 9 -42 10 -45 7 -37 20
-71 61 -155 125 -261 380 -445 635 -460 31 -2 58 -6 61 -9 3 -3 14 -1 24 5 13
7 19 6 19 -1 0 -6 4 -9 10 -5 5 3 33 8 62 10 29 3 64 7 78 10 14 3 34 7 45 9
181 35 285 98 340 207 100 196 -3 464 -200 522 -48 14 -138 16 -180 3 -150
-43 -215 -32 -251 41 -27 56 -26 256 2 423 4 19 8 44 9 55 1 11 3 20 5 20 1 0
3 9 5 20 5 35 14 79 24 113 5 18 10 35 10 37 2 20 35 139 138 490 7 28 15 55
17 60 5 21 61 200 138 445 44 140 81 260 83 265 1 6 5 17 8 25 3 8 13 40 22
70 10 30 23 69 29 85 6 17 11 35 12 40 1 6 23 73 49 150 25 77 48 147 50 155
2 8 26 85 54 170 28 85 51 158 51 162 0 4 5 19 12 35 6 15 12 30 13 33 1 3 7
25 14 49 7 24 60 186 118 359 58 173 106 320 108 326 1 6 4 18 8 26 3 8 17 53
32 100 15 47 30 92 33 100 3 8 6 18 7 23 2 4 4 9 5 12 1 3 3 8 4 13 1 4 13 41
26 82 13 41 24 77 25 80 0 3 11 39 25 80 13 41 24 80 26 85 1 6 18 66 37 135
39 137 57 202 56 210 0 3 4 17 10 33 6 15 13 38 15 50 3 12 14 63 25 112 64
291 73 554 25 750 -8 33 -16 69 -19 80 -23 98 -112 249 -203 343 -169 175
-337 260 -530 267 -29 1 -53 0 -55 -1z"/>
<path d="M6955 6318 c-56 -10 -106 -31 -139 -58 -54 -47 -63 -57 -83 -90 -20
-32 -51 -113 -58 -150 -2 -8 -4 -15 -5 -15 -1 0 -3 -7 -5 -15 -13 -64 -125
-463 -141 -505 -9 -22 -15 -42 -15 -45 1 -3 -7 -30 -16 -60 -9 -30 -17 -57
-18 -60 -1 -3 -7 -25 -14 -50 -7 -25 -29 -97 -48 -160 -49 -161 -143 -481
-148 -507 -3 -12 -10 -35 -16 -50 -6 -16 -12 -35 -14 -43 -2 -8 -13 -46 -26
-85 -13 -38 -24 -72 -24 -75 -1 -3 -4 -12 -7 -20 -4 -8 -43 -125 -88 -259 -45
-133 -85 -253 -90 -265 -5 -11 -34 -91 -64 -176 -45 -127 -91 -256 -121 -338
-2 -7 -4 -14 -5 -17 0 -3 -7 -19 -15 -35 -8 -16 -15 -32 -15 -35 0 -3 -7 -21
-15 -41 -8 -20 -15 -38 -15 -40 0 -1 -5 -15 -12 -31 -6 -15 -12 -32 -14 -38
-4 -18 -125 -308 -155 -373 -16 -35 -29 -65 -29 -67 0 -14 -171 -363 -255
-520 -85 -159 -139 -239 -210 -310 -185 -184 -401 -174 -500 24 -15 28 -28 59
-30 69 -2 9 -7 35 -12 57 -10 43 -9 220 0 270 3 17 11 57 16 90 13 76 21 116
26 135 3 8 7 33 11 55 3 22 8 43 11 48 2 4 7 20 9 35 3 15 17 72 30 127 14 55
28 108 30 118 2 9 6 25 8 35 8 34 46 169 71 257 15 50 28 97 30 105 2 8 13 49
25 90 12 41 23 80 24 85 1 6 8 28 14 50 6 22 12 43 12 47 0 4 8 27 16 50 14
38 20 59 27 93 2 6 6 15 9 21 4 6 10 26 13 44 3 18 8 37 11 42 3 5 14 37 24
71 23 77 57 187 105 337 20 63 38 122 40 130 2 8 27 83 55 165 28 83 53 157
55 165 2 8 54 166 115 350 62 184 113 340 115 345 1 6 5 19 9 30 5 11 13 32
18 48 10 26 14 145 6 177 -4 16 -24 57 -49 100 -8 14 -22 31 -31 38 -9 7 -23
18 -30 25 -65 61 -231 99 -327 75 -20 -5 -40 -10 -46 -11 -68 -17 -168 -102
-200 -171 -13 -29 -75 -199 -80 -221 -1 -5 -7 -23 -14 -39 -6 -16 -13 -36 -15
-45 -2 -9 -6 -23 -10 -31 -3 -8 -78 -226 -165 -485 -87 -258 -161 -477 -164
-485 -3 -8 -31 -96 -62 -195 -31 -99 -63 -198 -71 -220 -25 -72 -115 -378
-129 -440 -3 -11 -9 -31 -15 -45 -5 -14 -25 -90 -45 -170 -20 -80 -39 -152
-42 -160 -3 -8 -7 -22 -8 -30 -2 -8 -8 -30 -14 -49 -6 -19 -9 -37 -6 -39 3 -3
0 -11 -6 -19 -6 -7 -9 -13 -6 -13 3 0 -1 -22 -9 -49 -8 -27 -16 -62 -19 -77
-2 -16 -15 -78 -29 -139 -13 -60 -27 -126 -30 -145 -3 -19 -8 -46 -11 -60 -16
-71 -19 -118 -19 -255 -1 -134 5 -218 18 -280 3 -11 11 -52 20 -90 38 -177
137 -395 241 -531 53 -70 168 -180 230 -221 145 -95 277 -136 445 -136 313 -2
595 146 862 451 89 102 301 418 341 511 6 14 14 28 17 31 3 3 25 48 50 100 24
52 50 102 57 111 7 8 13 21 13 27 0 6 5 22 12 36 9 20 14 23 24 15 8 -6 11
-15 8 -20 -3 -5 -1 -9 4 -9 5 0 14 -12 21 -26 30 -67 165 -215 234 -258 17
-11 34 -23 37 -27 9 -12 129 -69 145 -69 8 0 15 -4 15 -10 0 -5 10 -10 23 -10
13 0 28 -5 35 -12 7 -7 12 -9 12 -6 0 5 26 0 95 -18 36 -9 219 -11 265 -2 25
5 61 11 80 14 53 8 177 51 258 90 68 33 201 109 212 123 3 3 28 22 55 41 55
38 67 47 133 105 135 116 167 173 167 295 0 71 -5 94 -27 140 -36 78 -115 155
-196 193 -59 28 -78 32 -152 32 -74 0 -92 -4 -141 -29 -31 -15 -67 -38 -80
-50 -119 -107 -208 -165 -301 -197 -96 -32 -188 -16 -236 41 -22 26 -62 109
-62 128 0 10 -3 22 -6 25 -24 24 -23 347 1 537 11 85 40 255 66 385 11 55 22
114 25 130 3 17 23 109 45 205 22 96 42 183 44 193 2 10 7 27 10 37 3 10 7 27
10 37 7 40 27 119 32 133 4 8 6 18 5 22 -1 4 3 20 9 35 6 15 12 37 14 48 2 11
15 63 29 115 15 52 29 104 31 115 3 11 8 34 11 50 3 17 9 35 12 40 4 6 7 15 8
20 1 6 12 46 24 90 12 44 23 85 25 90 1 6 7 30 14 55 7 25 15 52 17 60 2 8 12
47 23 85 11 39 33 120 49 180 17 61 38 137 47 170 9 33 18 67 20 75 2 8 17 67
34 130 35 133 42 170 46 225 3 51 -20 139 -45 175 -11 16 -20 31 -20 34 0 14
-80 78 -127 102 -88 44 -161 56 -248 42z"/>
</g>
</svg>
